<svg xmlns="http://www.w3.org/2000/svg" viewBox="0 0 100 100"><defs/><path fill="none" d="M0 0h100v100H0z"/><g fill-rule="evenodd" clip-rule="evenodd"><path fill="#48484A" d="M71.449 39h-.419c.057 0 .094-1.169.094-1.522 0-3.41-2.764-6.421-6.176-6.421-.627 0-1.232-.029-1.804.146-.799-3.835-4.41-6.777-8.482-6.777-4.667 0-8.662 3.721-8.662 8.388V35h-.549c-3.9 0-6.809 3.451-6.809 7.369 0 3.915 2.357 7.372 7.357 7.372V50H71.449c3.05 0 5.524-2.45 5.524-5.5.001-3.051-2.474-5.5-5.524-5.5z"/><path fill="#F2F2F1" d="M62.391 45h-.507c.069 0 .113-.436.113-.862 0-4.136-3.354-7.296-7.49-7.296-.76 0-1.497.212-2.188.424-.971-4.651-5.611-8.096-10.551-8.096C36.107 29.17 31 33.806 31 39.465V43h-.141c-4.729 0-8.59 3.765-8.59 8.514 0 4.75 3.861 8.486 8.59 8.486H62.392c3.699 0 6.701-3.802 6.701-7.5-.001-3.701-3.003-7.5-6.702-7.5z"/></g><path fill="none" stroke="#0092FF" stroke-linecap="round" stroke-miterlimit="10" stroke-width="2" d="M38.917 57.167L34.083 70.25" clip-rule="evenodd"/><g fill="none" stroke="#0092FF" stroke-linecap="round" stroke-miterlimit="10" stroke-width="2"><path d="M52.917 62.167l-2.079 5.628"/><path stroke-dasharray=".389 .389 .389 .389" d="M50.703 68.16l-.473 1.279"/><path d="M50.163 69.622l-2.079 5.628"/></g><path fill="none" stroke="#0092FF" stroke-dasharray="10.515" stroke-linecap="round" stroke-miterlimit="10" stroke-width="2" d="M43.728 64.387l-3.644 9.863"/></svg>