<svg xmlns="http://www.w3.org/2000/svg" viewBox="0 0 100 100"><defs/><path fill="none" d="M0 0h100v100H0z"/><circle cx="61.155" cy="37.475" r="13.6" fill="#48484A"/><path fill="#F2F2F1" fill-rule="evenodd" d="M64.821 44h-.515c.069 0 .115-.846.115-1.28a7.605 7.605 0 00-9.823-7.276c-.984-4.721-5.678-8.268-10.689-8.268C38.167 27.176 33 31.831 33 37.575V41h-.179c-4.8 0-8.629 3.694-8.629 8.516 0 4.82 3.809 8.418 8.809 8.418V58H64.823c3.755 0 6.8-3.246 6.8-7-.002-3.757-3.047-7-6.802-7z" clip-rule="evenodd"/><g><path fill="none" stroke="#0092FF" stroke-linecap="round" stroke-miterlimit="10" stroke-width="2" d="M41.917 56.167L37.084 69.25" clip-rule="evenodd"/><g fill="none" stroke="#0092FF" stroke-linecap="round" stroke-miterlimit="10" stroke-width="2"><path d="M55.917 61.167l-2.079 5.628"/><path stroke-dasharray=".389 .389 .389 .389" d="M53.703 67.16l-.473 1.279"/><path d="M53.163 68.622l-2.079 5.628"/></g><path fill="none" stroke="#0092FF" stroke-dasharray="10.515" stroke-linecap="round" stroke-miterlimit="10" stroke-width="2" d="M46.728 63.387l-3.644 9.863"/></g></svg>