<svg xmlns="http://www.w3.org/2000/svg" viewBox="0 0 100 100"><defs/><path fill="none" d="M0 0h100v100H0z"/><g fill="none" stroke="#48484A" stroke-miterlimit="10" stroke-width="2"><path d="M50 46V30M43 33.188l7 7.25 7-7.25M47.518 55l-2.482-4.5 2.482-4.5h4.964l2.482 4.5-2.482 4.5zM50 55v16M57 67.813l-7-7.25-7 7.25M46.104 48.25l-13.858-8M31.507 47.905l9.778-2.437-2.778-9.687"/><g><path d="M53.896 52.75l13.858 8M68.493 53.094l-9.778 2.437 2.778 9.687"/></g><g><path d="M46.104 52.749l-13.857 8M38.507 65.217l2.779-9.687-9.779-2.437"/></g><g><path d="M53.897 48.25l13.858-8.001M61.494 35.781l-2.778 9.687 9.777 2.437"/></g></g></svg>