<svg xmlns="http://www.w3.org/2000/svg" viewBox="0 0 100 100"><defs/><path fill="#333" d="M47.703 58.219v-3.375c0-4.641 1.921-8.179 5.766-10.617 3.797-2.367 5.695-5.156 5.695-8.367 0-1.758-.586-3.123-1.758-4.096-1.172-.972-2.836-1.459-4.992-1.459-2.203 0-4.372.551-6.504 1.652a17.128 17.128 0 00-5.449 4.395l-4.852-5.027c1.64-2.32 3.978-4.184 7.014-5.59 3.035-1.406 6.322-2.109 9.861-2.109 4.57 0 8.115 1.037 10.635 3.111s3.779 4.998 3.779 8.771c0 5.18-2.602 9.445-7.805 12.797-3 1.946-4.5 4.289-4.5 7.031v2.883h-6.89zm3.586 16.734c-1.43 0-2.654-.51-3.674-1.529s-1.529-2.244-1.529-3.674c0-1.453.51-2.684 1.529-3.691s2.244-1.512 3.674-1.512c1.453 0 2.684.504 3.691 1.512s1.512 2.238 1.512 3.691c0 1.43-.504 2.654-1.512 3.674s-2.238 1.529-3.691 1.529z"/></svg>