<svg xmlns="http://www.w3.org/2000/svg" viewBox="0 0 100 100"><defs/><path fill="none" d="M0 0h100v100H0z"/><g fill-rule="evenodd" clip-rule="evenodd"><path fill="#48484A" d="M77.491 47h-.529c.071-1 .117-1.53.117-1.976 0-4.326-3.506-8.168-7.833-8.168-.797 0-1.564-.046-2.289.175-1.015-4.865-6.199-8.603-11.364-8.603-5.92 0-11.593 4.715-11.593 10.635V43h.511c-4.947 0-9.242 3.797-9.242 8.765 0 4.969 3.73 8.771 8.73 8.771V61h33.492a7 7 0 100-14z"/><path fill="#999" d="M66 56h-.643c.087-1 .143-1.292.143-1.833 0-5.247-4.253-9.625-9.5-9.625-.967 0-1.898.084-2.776.353-1.231-5.9-6.709-10.363-12.974-10.363C33.07 34.531 27 40.32 27 47.5V51h-1c-6 0-10.898 4.993-10.898 11.019S20 73 26 73h40a8.501 8.501 0 000-17z"/></g></svg>