<?xml version="1.0" encoding="utf-8"?>
<!-- Generator: Adobe Illustrator 16.0.3, SVG Export Plug-In . SVG Version: 6.00 Build 0)  -->
<!DOCTYPE svg PUBLIC "-//W3C//DTD SVG 1.1//EN" "http://www.w3.org/Graphics/SVG/1.1/DTD/svg11.dtd">
<svg version="1.1" xmlns="http://www.w3.org/2000/svg" xmlns:xlink="http://www.w3.org/1999/xlink" x="0px" y="0px" width="100px"
	 height="100px" viewBox="0 0 100 100" enable-background="new 0 0 100 100" xml:space="preserve">
<g id="領域">
	<rect fill="none" width="100" height="100"/>
</g>
<g id="_x35_0n" display="none">
	<image overflow="visible" width="100" height="100" xlink:href="../img/50d@2x.png" >
	</image>
	<line display="inline" fill="none" stroke="#48484A" stroke-width="2" stroke-miterlimit="10" x1="39" y1="35" x2="56" y2="35"/>
	<line display="inline" fill="none" stroke="#48484A" stroke-width="2" stroke-miterlimit="10" x1="38" y1="66" x2="63" y2="66"/>
	<line display="inline" fill="none" stroke="#48484A" stroke-width="2" stroke-miterlimit="10" x1="32" y1="60" x2="71" y2="60"/>
	<line display="inline" fill="none" stroke="#48484A" stroke-width="2" stroke-miterlimit="10" x1="24" y1="54" x2="63" y2="54"/>
	<line display="inline" fill="none" stroke="#48484A" stroke-width="2" stroke-miterlimit="10" x1="38" y1="48" x2="77" y2="48"/>
	<line display="inline" fill="none" stroke="#48484A" stroke-width="2" stroke-miterlimit="10" x1="27" y1="41" x2="59" y2="41"/>
</g>
<g id="_x35_0d" display="none">
	<image overflow="visible" width="100" height="100" xlink:href="../img/50d@2x.png" >
	</image>
	<line display="inline" fill="none" stroke="#48484A" stroke-width="2" stroke-miterlimit="10" x1="39" y1="35" x2="56" y2="35"/>
	<line display="inline" fill="none" stroke="#48484A" stroke-width="2" stroke-miterlimit="10" x1="38" y1="66" x2="63" y2="66"/>
	<line display="inline" fill="none" stroke="#48484A" stroke-width="2" stroke-miterlimit="10" x1="32" y1="60" x2="71" y2="60"/>
	<line display="inline" fill="none" stroke="#48484A" stroke-width="2" stroke-miterlimit="10" x1="24" y1="54" x2="63" y2="54"/>
	<line display="inline" fill="none" stroke="#48484A" stroke-width="2" stroke-miterlimit="10" x1="38" y1="48" x2="77" y2="48"/>
	<line display="inline" fill="none" stroke="#48484A" stroke-width="2" stroke-miterlimit="10" x1="27" y1="41" x2="59" y2="41"/>
</g>
<g id="_x31_3n" display="none">
	<g display="inline">
		<line fill="none" stroke="#48484A" stroke-width="2" stroke-miterlimit="10" x1="50" y1="46" x2="50" y2="30"/>
		<polyline fill="none" stroke="#48484A" stroke-width="2" stroke-miterlimit="10" points="43,33.188 50,40.438 57,33.188 		"/>
	</g>
	<polygon display="inline" fill="none" stroke="#48484A" stroke-width="2" stroke-miterlimit="10" points="47.518,55 45.036,50.5 
		47.518,46 52.482,46 54.964,50.5 52.482,55 	"/>
	<g display="inline">
		<line fill="none" stroke="#48484A" stroke-width="2" stroke-miterlimit="10" x1="50" y1="55" x2="50" y2="71"/>
		<polyline fill="none" stroke="#48484A" stroke-width="2" stroke-miterlimit="10" points="57,67.813 50,60.563 43,67.813 		"/>
	</g>
	<g display="inline">
		<line fill="none" stroke="#48484A" stroke-width="2" stroke-miterlimit="10" x1="46.104" y1="48.25" x2="32.246" y2="40.25"/>
		<polyline fill="none" stroke="#48484A" stroke-width="2" stroke-miterlimit="10" points="31.507,47.905 41.285,45.468 
			38.507,35.781 		"/>
	</g>
	<g display="inline">
		<line fill="none" stroke="#48484A" stroke-width="2" stroke-miterlimit="10" x1="53.896" y1="52.75" x2="67.754" y2="60.75"/>
		<polyline fill="none" stroke="#48484A" stroke-width="2" stroke-miterlimit="10" points="68.493,53.094 58.715,55.531 
			61.493,65.218 		"/>
	</g>
	<g display="inline">
		<line fill="none" stroke="#48484A" stroke-width="2" stroke-miterlimit="10" x1="46.104" y1="52.749" x2="32.247" y2="60.749"/>
		<polyline fill="none" stroke="#48484A" stroke-width="2" stroke-miterlimit="10" points="38.507,65.217 41.286,55.53 
			31.507,53.093 		"/>
	</g>
	<g display="inline">
		<line fill="none" stroke="#48484A" stroke-width="2" stroke-miterlimit="10" x1="53.897" y1="48.25" x2="67.755" y2="40.249"/>
		<polyline fill="none" stroke="#48484A" stroke-width="2" stroke-miterlimit="10" points="61.494,35.781 58.716,45.468 
			68.493,47.905 		"/>
	</g>
</g>
<g id="_x31_3d" display="none">
	<g display="inline">
		<line fill="none" stroke="#48484A" stroke-width="2" stroke-miterlimit="10" x1="50" y1="46" x2="50" y2="30"/>
		<polyline fill="none" stroke="#48484A" stroke-width="2" stroke-miterlimit="10" points="43,33.188 50,40.438 57,33.188 		"/>
	</g>
	<polygon display="inline" fill="none" stroke="#48484A" stroke-width="2" stroke-miterlimit="10" points="47.518,55 45.036,50.5 
		47.518,46 52.482,46 54.964,50.5 52.482,55 	"/>
	<g display="inline">
		<line fill="none" stroke="#48484A" stroke-width="2" stroke-miterlimit="10" x1="50" y1="55" x2="50" y2="71"/>
		<polyline fill="none" stroke="#48484A" stroke-width="2" stroke-miterlimit="10" points="57,67.813 50,60.563 43,67.813 		"/>
	</g>
	<g display="inline">
		<line fill="none" stroke="#48484A" stroke-width="2" stroke-miterlimit="10" x1="46.104" y1="48.25" x2="32.246" y2="40.25"/>
		<polyline fill="none" stroke="#48484A" stroke-width="2" stroke-miterlimit="10" points="31.507,47.905 41.285,45.468 
			38.507,35.781 		"/>
	</g>
	<g display="inline">
		<line fill="none" stroke="#48484A" stroke-width="2" stroke-miterlimit="10" x1="53.896" y1="52.75" x2="67.754" y2="60.75"/>
		<polyline fill="none" stroke="#48484A" stroke-width="2" stroke-miterlimit="10" points="68.493,53.094 58.715,55.531 
			61.493,65.218 		"/>
	</g>
	<g display="inline">
		<line fill="none" stroke="#48484A" stroke-width="2" stroke-miterlimit="10" x1="46.104" y1="52.749" x2="32.247" y2="60.749"/>
		<polyline fill="none" stroke="#48484A" stroke-width="2" stroke-miterlimit="10" points="38.507,65.217 41.286,55.53 
			31.507,53.093 		"/>
	</g>
	<g display="inline">
		<line fill="none" stroke="#48484A" stroke-width="2" stroke-miterlimit="10" x1="53.897" y1="48.25" x2="67.755" y2="40.249"/>
		<polyline fill="none" stroke="#48484A" stroke-width="2" stroke-miterlimit="10" points="61.494,35.781 58.716,45.468 
			68.493,47.905 		"/>
	</g>
</g>
<g id="_x31_1n" display="none">
	<g display="inline">
		<path fill-rule="evenodd" clip-rule="evenodd" fill="#48484A" d="M77.001,40c-0.01,0-0.194,0-0.499,0
			c0.067-1,0.109-1.719,0.109-2.14c0-4.084-3.309-7.849-7.395-7.849c-0.752,0-1.477-0.113-2.16,0.096
			c-0.959-4.592-6.044-8.155-10.921-8.155C50.547,21.951,45,26.369,45,31.957V35h0.867c-4.671,0-8.918,3.921-8.918,8.611
			c0,4.691,4.051,8.617,8.051,8.617V53h7.482h14.79c5.146,0,9.673,0,9.729,0c3.654,0,6.617-2.847,6.617-6.5
			C83.618,42.845,80.655,40,77.001,40z"/>
		<path fill-rule="evenodd" clip-rule="evenodd" fill="#F2F2F1" d="M66.153,48c-0.014,0-0.238,0-0.607,0
			c0.082-1,0.135-1.246,0.135-1.758c0-4.953-4.015-9.099-8.969-9.099c-0.912,0-1.792,0.072-2.62,0.326
			c-1.163-5.57-6.502-9.787-12.416-9.787C34.897,27.683,29,33.144,29,39.922V43h-0.61c-5.665,0-10.483,4.827-10.483,10.516
			S23,64.029,28,64.029V64h8.415h17.938c6.242,0,11.732,0,11.801,0c4.431,0,8.024-3.568,8.024-8C74.178,51.566,70.584,48,66.153,48z
			"/>
	</g>
	<polygon display="inline" fill-rule="evenodd" clip-rule="evenodd" fill="#D1CD30" points="37,54 44,54 39.25,62 44,62 32,76.156 
		36.813,66 32,66 	"/>
</g>
<g id="_x31_1d" display="none">
	<g display="inline">
		<path fill-rule="evenodd" clip-rule="evenodd" fill="#48484A" d="M77.001,40c-0.01,0-0.194,0-0.499,0
			c0.067-1,0.109-1.719,0.109-2.14c0-4.084-3.309-7.849-7.395-7.849c-0.752,0-1.477-0.113-2.16,0.096
			c-0.959-4.592-6.044-8.155-10.921-8.155C50.547,21.951,45,26.369,45,31.957V35h0.867c-4.671,0-8.918,3.921-8.918,8.611
			c0,4.691,4.051,8.617,8.051,8.617V53h7.482h14.79c5.146,0,9.673,0,9.729,0c3.654,0,6.617-2.847,6.617-6.5
			C83.618,42.845,80.655,40,77.001,40z"/>
		<path fill-rule="evenodd" clip-rule="evenodd" fill="#F2F2F1" d="M66.153,48c-0.014,0-0.238,0-0.607,0
			c0.082-1,0.135-1.246,0.135-1.758c0-4.953-4.015-9.099-8.969-9.099c-0.912,0-1.792,0.072-2.62,0.326
			c-1.163-5.57-6.502-9.787-12.416-9.787C34.897,27.683,29,33.144,29,39.922V43h-0.61c-5.665,0-10.483,4.827-10.483,10.516
			S23,64.029,28,64.029V64h8.415h17.938c6.242,0,11.732,0,11.801,0c4.431,0,8.024-3.568,8.024-8C74.178,51.566,70.584,48,66.153,48z
			"/>
	</g>
	<polygon display="inline" fill-rule="evenodd" clip-rule="evenodd" fill="#D1CD30" points="37,54 44,54 39.25,62 44,62 32,76.156 
		36.813,66 32,66 	"/>
</g>
<g id="_x31_0n" display="none">
	<g display="inline">
		<circle fill="#48484A" cx="61.155" cy="37.475" r="13.6"/>
		<path fill-rule="evenodd" clip-rule="evenodd" fill="#F2F2F1" d="M64.821,44c-0.012,0-0.201,0-0.515,0
			c0.069,0,0.115-0.846,0.115-1.28c0-4.197-3.403-7.605-7.602-7.605c-0.773,0-1.519,0.115-2.221,0.329
			c-0.984-4.721-5.678-8.268-10.689-8.268C38.167,27.176,33,31.831,33,37.575V41h-0.179c-4.8,0-8.629,3.694-8.629,8.516
			c0,4.82,3.809,8.418,8.809,8.418V58h6.621h15.201c5.289,0,9.942,0,10,0c3.755,0,6.8-3.246,6.8-7
			C71.621,47.243,68.576,44,64.821,44z"/>
	</g>
	<g display="inline">
		
			<line fill-rule="evenodd" clip-rule="evenodd" fill="none" stroke="#0092FF" stroke-width="2" stroke-linecap="round" stroke-miterlimit="10" x1="41.917" y1="56.167" x2="37.084" y2="69.25"/>
		<g>
			<g>
				
					<line fill="none" stroke="#0092FF" stroke-width="2" stroke-linecap="round" stroke-miterlimit="10" x1="55.917" y1="61.167" x2="53.838" y2="66.795"/>
				
					<line fill="none" stroke="#0092FF" stroke-width="2" stroke-linecap="round" stroke-miterlimit="10" stroke-dasharray="0.3894,0.3894,0.3894,0.3894" x1="53.703" y1="67.16" x2="53.23" y2="68.439"/>
				
					<line fill="none" stroke="#0092FF" stroke-width="2" stroke-linecap="round" stroke-miterlimit="10" x1="53.163" y1="68.622" x2="51.084" y2="74.25"/>
			</g>
		</g>
		<g>
			
				<line fill="none" stroke="#0092FF" stroke-width="2" stroke-linecap="round" stroke-miterlimit="10" stroke-dasharray="10.5147" x1="46.728" y1="63.387" x2="43.084" y2="73.25"/>
		</g>
	</g>
</g>
<g id="_x31_0d">
	<g>
		<circle fill="#EC6E4C" cx="61.155" cy="37.475" r="13.6"/>
		<path fill-rule="evenodd" clip-rule="evenodd" fill="#F2F2F1" d="M64.821,44c-0.012,0-0.201,0-0.515,0
			c0.069,0,0.115-0.846,0.115-1.28c0-4.197-3.403-7.605-7.602-7.605c-0.773,0-1.519,0.115-2.221,0.329
			c-0.984-4.721-5.678-8.268-10.689-8.268C38.167,27.176,33,31.831,33,37.575V41h-0.179c-4.8,0-8.629,3.694-8.629,8.516
			c0,4.82,3.809,8.418,8.809,8.418V58h6.621h15.201c5.289,0,9.942,0,10,0c3.755,0,6.8-3.246,6.8-7
			C71.621,47.243,68.576,44,64.821,44z"/>
	</g>
	<g>
		
			<line fill-rule="evenodd" clip-rule="evenodd" fill="none" stroke="#0092FF" stroke-width="2" stroke-linecap="round" stroke-miterlimit="10" x1="41.917" y1="56.167" x2="37.084" y2="69.25"/>
		<g>
			<g>
				
					<line fill="none" stroke="#0092FF" stroke-width="2" stroke-linecap="round" stroke-miterlimit="10" x1="55.917" y1="61.167" x2="53.838" y2="66.795"/>
				
					<line fill="none" stroke="#0092FF" stroke-width="2" stroke-linecap="round" stroke-miterlimit="10" stroke-dasharray="0.3894,0.3894,0.3894,0.3894" x1="53.703" y1="67.16" x2="53.23" y2="68.439"/>
				
					<line fill="none" stroke="#0092FF" stroke-width="2" stroke-linecap="round" stroke-miterlimit="10" x1="53.163" y1="68.622" x2="51.084" y2="74.25"/>
			</g>
		</g>
		<g>
			
				<line fill="none" stroke="#0092FF" stroke-width="2" stroke-linecap="round" stroke-miterlimit="10" stroke-dasharray="10.5147" x1="46.728" y1="63.387" x2="43.084" y2="73.25"/>
		</g>
	</g>
</g>
<g id="_x30_9n" display="none">
	<image overflow="visible" width="100" height="100" xlink:href="../img/09n@2x.png" >
	</image>
	<g display="inline">
		<path fill-rule="evenodd" clip-rule="evenodd" fill="#48484A" d="M71.449,39c-0.01,0-0.162,0-0.419,0
			c0.057,0,0.094-1.169,0.094-1.522c0-3.41-2.764-6.421-6.176-6.421c-0.627,0-1.232-0.029-1.804,0.146
			c-0.799-3.835-4.41-6.777-8.482-6.777c-4.667,0-8.662,3.721-8.662,8.388V35h-0.549c-3.9,0-6.809,3.451-6.809,7.369
			c0,3.915,2.357,7.372,7.357,7.372V50h4.977h12.349c4.297,0,8.076,0,8.124,0c3.05,0,5.524-2.45,5.524-5.5
			C76.974,41.449,74.499,39,71.449,39z"/>
		<path fill-rule="evenodd" clip-rule="evenodd" fill="#F2F2F1" d="M62.391,45c-0.01,0-0.2,0-0.507,0
			c0.069,0,0.113-0.436,0.113-0.862c0-4.136-3.354-7.296-7.49-7.296c-0.76,0-1.497,0.212-2.188,0.424
			c-0.971-4.651-5.611-8.096-10.551-8.096C36.107,29.17,31,33.806,31,39.465V43h-0.141c-4.729,0-8.59,3.765-8.59,8.514
			c0,4.75,3.861,8.486,8.59,8.486l0,0h6.701h14.978c5.211,0,9.795,0,9.854,0c3.699,0,6.701-3.802,6.701-7.5
			C69.092,48.799,66.09,45,62.391,45z"/>
	</g>
	
		<line display="inline" fill-rule="evenodd" clip-rule="evenodd" fill="none" stroke="#0092FF" stroke-width="2" stroke-linecap="round" stroke-miterlimit="10" x1="38.917" y1="57.167" x2="34.083" y2="70.25"/>
	<g display="inline">
		<g>
			
				<line fill="none" stroke="#0092FF" stroke-width="2" stroke-linecap="round" stroke-miterlimit="10" x1="52.917" y1="62.167" x2="50.838" y2="67.795"/>
			
				<line fill="none" stroke="#0092FF" stroke-width="2" stroke-linecap="round" stroke-miterlimit="10" stroke-dasharray="0.3894,0.3894,0.3894,0.3894" x1="50.703" y1="68.16" x2="50.23" y2="69.439"/>
			
				<line fill="none" stroke="#0092FF" stroke-width="2" stroke-linecap="round" stroke-miterlimit="10" x1="50.163" y1="69.622" x2="48.084" y2="75.25"/>
		</g>
	</g>
	<g display="inline">
		
			<line fill="none" stroke="#0092FF" stroke-width="2" stroke-linecap="round" stroke-miterlimit="10" stroke-dasharray="10.5147" x1="43.728" y1="64.387" x2="40.084" y2="74.25"/>
	</g>
</g>
<g id="_x30_9d" display="none">
	<image overflow="visible" width="100" height="100" xlink:href="../img/09n@2x.png" >
	</image>
	<g display="inline">
		<path fill-rule="evenodd" clip-rule="evenodd" fill="#48484A" d="M71.449,39c-0.01,0-0.162,0-0.419,0
			c0.057,0,0.094-1.169,0.094-1.522c0-3.41-2.764-6.421-6.176-6.421c-0.627,0-1.232-0.029-1.804,0.146
			c-0.799-3.835-4.41-6.777-8.482-6.777c-4.667,0-8.662,3.721-8.662,8.388V35h-0.549c-3.9,0-6.809,3.451-6.809,7.369
			c0,3.915,2.357,7.372,7.357,7.372V50h4.977h12.349c4.297,0,8.076,0,8.124,0c3.05,0,5.524-2.45,5.524-5.5
			C76.974,41.449,74.499,39,71.449,39z"/>
		<path fill-rule="evenodd" clip-rule="evenodd" fill="#F2F2F1" d="M62.391,45c-0.01,0-0.2,0-0.507,0
			c0.069,0,0.113-0.436,0.113-0.862c0-4.136-3.354-7.296-7.49-7.296c-0.76,0-1.497,0.212-2.188,0.424
			c-0.971-4.651-5.611-8.096-10.551-8.096C36.107,29.17,31,33.806,31,39.465V43h-0.141c-4.729,0-8.59,3.765-8.59,8.514
			c0,4.75,3.861,8.486,8.59,8.486l0,0h6.701h14.978c5.211,0,9.795,0,9.854,0c3.699,0,6.701-3.802,6.701-7.5
			C69.092,48.799,66.09,45,62.391,45z"/>
	</g>
	
		<line display="inline" fill-rule="evenodd" clip-rule="evenodd" fill="none" stroke="#0092FF" stroke-width="2" stroke-linecap="round" stroke-miterlimit="10" x1="38.917" y1="57.167" x2="34.083" y2="70.25"/>
	<g display="inline">
		<g>
			
				<line fill="none" stroke="#0092FF" stroke-width="2" stroke-linecap="round" stroke-miterlimit="10" x1="52.917" y1="62.167" x2="50.838" y2="67.795"/>
			
				<line fill="none" stroke="#0092FF" stroke-width="2" stroke-linecap="round" stroke-miterlimit="10" stroke-dasharray="0.3894,0.3894,0.3894,0.3894" x1="50.703" y1="68.16" x2="50.23" y2="69.439"/>
			
				<line fill="none" stroke="#0092FF" stroke-width="2" stroke-linecap="round" stroke-miterlimit="10" x1="50.163" y1="69.622" x2="48.084" y2="75.25"/>
		</g>
	</g>
	<g display="inline">
		
			<line fill="none" stroke="#0092FF" stroke-width="2" stroke-linecap="round" stroke-miterlimit="10" stroke-dasharray="10.5147" x1="43.728" y1="64.387" x2="40.084" y2="74.25"/>
	</g>
</g>
<g id="_x30_4n" display="none">
	<path display="inline" fill-rule="evenodd" clip-rule="evenodd" fill="#48484A" d="M77.491,47c-0.011,0-0.206,0-0.529,0
		c0.071-1,0.117-1.53,0.117-1.976c0-4.326-3.506-8.168-7.833-8.168c-0.797,0-1.564-0.046-2.289,0.175
		c-1.015-4.865-6.199-8.603-11.364-8.603C49.673,28.428,44,33.143,44,39.063V43h0.511c-4.947,0-9.242,3.797-9.242,8.765
		c0,4.969,3.73,8.771,8.73,8.771V61h7.52h15.666c5.451,0,10.246,0,10.306,0c3.871,0,7.009-3.131,7.009-7
		C84.5,50.128,81.362,47,77.491,47z"/>
	<path display="inline" fill-rule="evenodd" clip-rule="evenodd" fill="#F2F2F1" d="M66,56c-0.014,0-0.251,0-0.643,0
		c0.087-1,0.143-1.292,0.143-1.833c0-5.247-4.253-9.625-9.5-9.625c-0.967,0-1.898,0.084-2.776,0.353
		c-1.231-5.9-6.709-10.363-12.974-10.363C33.07,34.531,27,40.32,27,47.5V51h-1c-6,0-10.898,4.993-10.898,11.019S20,73,26,73l0,0h8.5
		h19c6.612,0,12.428,0,12.5,0c4.694,0,8.5-3.807,8.5-8.5C74.5,59.805,70.694,56,66,56z"/>
</g>
<g id="_x30_4d" display="none">
	<path display="inline" fill-rule="evenodd" clip-rule="evenodd" fill="#48484A" d="M77.491,47c-0.011,0-0.206,0-0.529,0
		c0.071-1,0.117-1.53,0.117-1.976c0-4.326-3.506-8.168-7.833-8.168c-0.797,0-1.564-0.046-2.289,0.175
		c-1.015-4.865-6.199-8.603-11.364-8.603C49.673,28.428,44,33.143,44,39.063V43h0.511c-4.947,0-9.242,3.797-9.242,8.765
		c0,4.969,3.73,8.771,8.73,8.771V61h7.52h15.666c5.451,0,10.246,0,10.306,0c3.871,0,7.009-3.131,7.009-7
		C84.5,50.128,81.362,47,77.491,47z"/>
	<path display="inline" fill-rule="evenodd" clip-rule="evenodd" fill="#F2F2F1" d="M66,56c-0.014,0-0.251,0-0.643,0
		c0.087-1,0.143-1.292,0.143-1.833c0-5.247-4.253-9.625-9.5-9.625c-0.967,0-1.898,0.084-2.776,0.353
		c-1.231-5.9-6.709-10.363-12.974-10.363C33.07,34.531,27,40.32,27,47.5V51h-1c-6,0-10.898,4.993-10.898,11.019S20,73,26,73l0,0h8.5
		h19c6.612,0,12.428,0,12.5,0c4.694,0,8.5-3.807,8.5-8.5C74.5,59.805,70.694,56,66,56z"/>
</g>
<g id="_x30_3n" display="none">
	<path display="inline" fill-rule="evenodd" clip-rule="evenodd" fill="#F2F2F1" d="M71,53c-0.014,0-0.251,0-0.643,0
		c0.087-1,0.143-1.292,0.143-1.833c0-5.247-4.253-9.625-9.5-9.625c-0.967,0-1.898,0.084-2.776,0.352
		c-1.231-5.899-6.709-10.363-12.974-10.363C38.07,31.531,32,37.32,32,44.5V48h-1c-6,0-10.898,4.993-10.898,11.019S25,70,31,70l0,0
		h8.5h19c6.612,0,12.428,0,12.5,0c4.694,0,8.5-3.807,8.5-8.5C79.5,56.805,75.694,53,71,53z"/>
</g>
<g id="_x30_3d" display="none">
	<path display="inline" fill-rule="evenodd" clip-rule="evenodd" fill="#F2F2F1" d="M71,53c-0.014,0-0.251,0-0.643,0
		c0.087-1,0.143-1.292,0.143-1.833c0-5.247-4.253-9.625-9.5-9.625c-0.967,0-1.898,0.084-2.776,0.352
		c-1.231-5.899-6.709-10.363-12.974-10.363C38.07,31.531,32,37.32,32,44.5V48h-1c-6,0-10.898,4.993-10.898,11.019S25,70,31,70l0,0
		h8.5h19c6.612,0,12.428,0,12.5,0c4.694,0,8.5-3.807,8.5-8.5C79.5,56.805,75.694,53,71,53z"/>
</g>
<g id="_x30_2n" display="none">
	<circle display="inline" fill="#48484A" cx="65.417" cy="46.375" r="17"/>
	<path display="inline" fill-rule="evenodd" clip-rule="evenodd" fill="#F2F2F1" d="M70,55c-0.014,0-0.251,0-0.643,0
		c0.087-1,0.143-1.292,0.143-1.833c0-5.247-4.253-9.625-9.5-9.625c-0.967,0-1.898,0.084-2.776,0.353
		c-1.231-5.9-6.709-10.363-12.974-10.363C37.07,33.531,31,39.32,31,46.5V50h-1c-6,0-10.898,4.993-10.898,11.019S24,72,30,72l0,0h8.5
		h19c6.612,0,12.428,0,12.5,0c4.694,0,8.5-3.807,8.5-8.5C78.5,58.805,74.694,55,70,55z"/>
</g>
<g id="_x30_2d" display="none">
	<circle display="inline" fill="#EC6E4C" cx="65.417" cy="46.375" r="17"/>
	<path display="inline" fill-rule="evenodd" clip-rule="evenodd" fill="#F2F2F1" d="M70,55c-0.014,0-0.251,0-0.643,0
		c0.087-1,0.143-1.292,0.143-1.833c0-5.247-4.253-9.625-9.5-9.625c-0.967,0-1.898,0.084-2.776,0.353
		c-1.231-5.9-6.709-10.363-12.974-10.363C37.07,33.531,31,39.32,31,46.5V50h-1c-6,0-10.898,4.993-10.898,11.019S24,72,30,72l0,0h8.5
		h19c6.612,0,12.428,0,12.5,0c4.694,0,8.5-3.807,8.5-8.5C78.5,58.805,74.694,55,70,55z"/>
</g>
<g id="_x30_1n" display="none">
	<circle display="inline" fill="#48484A" cx="50" cy="49.958" r="25"/>
</g>
<g id="_x30_1d" display="none">
	<circle display="inline" fill="#EC6E4C" cx="50" cy="49.958" r="25"/>
</g>
</svg>
