<svg xmlns="http://www.w3.org/2000/svg" viewBox="0 0 100 100"><defs/><path fill="none" d="M0 0h100v100H0z"/><g fill-rule="evenodd" clip-rule="evenodd"><path fill="#48484A" d="M77.001 40h-.499c.067-1 .109-1.719.109-2.14 0-4.084-3.309-7.849-7.395-7.849-.752 0-1.477-.113-2.16.096-.959-4.592-6.044-8.155-10.921-8.155C50.547 21.951 45 26.369 45 31.957V35h.867c-4.671 0-8.918 3.921-8.918 8.611 0 4.691 4.051 8.617 8.051 8.617V53h32.001c3.654 0 6.617-2.847 6.617-6.5 0-3.655-2.963-6.5-6.617-6.5z"/><path fill="#999" d="M66.153 48h-.607c.082-1 .135-1.246.135-1.758 0-4.953-4.015-9.099-8.969-9.099-.912 0-1.792.072-2.62.326-1.163-5.57-6.502-9.787-12.416-9.787C34.897 27.683 29 33.144 29 39.922V43h-.61c-5.665 0-10.483 4.827-10.483 10.516S23 64.029 28 64.029V64H66.154c4.431 0 8.024-3.568 8.024-8 0-4.434-3.594-8-8.025-8z"/><path fill="#FFF200" d="M37 54h7l-4.75 8H44L32 76.156 36.813 66H32z"/></g></svg>